<?xml version="1.0" standalone="no"?>
<!DOCTYPE svg PUBLIC "-//W3C//DTD SVG 20010904//EN"
 "http://www.w3.org/TR/2001/REC-SVG-20010904/DTD/svg10.dtd">
<svg version="1.0" xmlns="http://www.w3.org/2000/svg"
 width="436.000000pt" height="436.000000pt" viewBox="0 0 436.000000 436.000000"
 preserveAspectRatio="xMidYMid meet">
<metadata>
Created by potrace 1.14, written by Peter Selinger 2001-2017
</metadata>
<g transform="translate(0.000000,436.000000) scale(0.100000,-0.100000)"
fill="#000000" stroke="none">
<path d="M2026 4199 c-176 -20 -324 -73 -470 -167 -50 -33 -115 -74 -144 -92
-134 -83 -261 -278 -304 -471 -19 -83 -22 -128 -23 -374 -1 -154 -5 -300 -10
-325 -18 -106 -78 -238 -181 -397 -181 -281 -200 -379 -110 -563 l47 -95 -7
-96 c-4 -57 -2 -104 3 -114 8 -14 11 -11 16 20 6 37 50 105 67 105 6 0 21 -17
34 -39 14 -21 52 -65 86 -97 78 -75 114 -134 106 -174 -8 -42 15 -39 53 7 39
47 46 87 28 141 -12 36 -13 42 -1 42 10 0 5 13 -15 40 -39 54 -55 125 -49 218
7 95 21 136 114 333 76 162 118 275 130 347 4 23 10 45 15 47 4 3 28 -12 52
-34 69 -59 155 -108 245 -137 122 -40 123 -38 -113 -274 -107 -107 -195 -202
-195 -211 0 -9 10 -29 22 -45 19 -23 22 -38 20 -89 -4 -70 14 -124 54 -166
l26 -27 -79 -58 c-100 -76 -264 -233 -320 -308 -33 -44 -43 -67 -43 -96 0 -24
-7 -43 -19 -54 -11 -10 -24 -30 -29 -45 -8 -23 -6 -30 9 -39 11 -7 19 -20 19
-31 0 -11 20 -30 51 -50 28 -17 53 -31 56 -31 13 0 81 -36 106 -57 16 -13 37
-23 47 -23 9 0 23 -7 30 -15 8 -9 30 -15 59 -15 25 0 55 -7 65 -15 11 -8 34
-15 52 -15 18 0 36 -4 39 -10 3 -5 23 -10 43 -10 26 -1 47 -9 69 -28 29 -25
34 -37 44 -106 6 -43 7 -82 2 -86 -4 -4 -51 -13 -103 -19 -206 -26 -435 -85
-477 -124 -32 -29 -30 -63 6 -82 105 -54 575 -86 1166 -79 765 8 1020 37 1057
120 11 24 10 29 -19 55 -70 61 -272 102 -487 98 -77 -2 -147 2 -170 8 -22 7
-117 17 -210 24 -94 7 -175 15 -179 19 -5 4 2 51 15 103 26 107 36 117 117
123 33 2 52 11 76 34 35 34 42 36 65 15 15 -14 24 -14 86 1 38 8 78 24 89 33
11 10 32 21 48 25 15 4 45 22 66 41 21 19 48 35 59 35 12 0 27 10 33 22 7 13
18 29 26 36 16 16 7 35 -36 76 -17 17 -31 36 -31 43 0 20 -47 109 -91 175 -56
82 -141 171 -234 243 -98 77 -142 122 -129 133 5 4 41 18 81 30 85 27 167 78
171 108 3 20 -23 61 -142 224 l-59 81 51 162 c28 89 56 185 63 212 13 57 39
85 80 85 25 0 29 -5 39 -42 27 -112 122 -226 273 -329 159 -109 214 -173 237
-275 17 -76 -1 -126 -68 -188 -133 -123 -137 -129 -156 -200 -11 -40 -16 -81
-13 -103 7 -42 42 -83 71 -83 19 1 19 2 4 10 -33 20 -35 110 -2 110 8 0 25 -6
37 -14 12 -8 48 -19 79 -25 69 -12 150 -46 173 -72 12 -12 15 -27 11 -44 -4
-14 -2 -25 3 -25 17 0 61 61 61 85 0 30 -41 79 -80 95 -17 7 -29 17 -27 23 4
14 76 51 152 80 63 23 61 20 114 137 9 19 39 58 67 85 79 76 94 107 94 192 0
108 -28 173 -105 249 -51 51 -89 76 -221 142 -87 45 -177 97 -198 117 -39 35
-39 36 -18 51 14 10 22 27 24 57 l3 42 89 22 c49 12 93 26 99 32 12 12 -33
206 -79 342 -29 87 -21 99 103 164 105 54 183 121 183 156 0 13 -31 63 -68
113 -38 50 -103 139 -146 197 -89 124 -161 195 -306 299 -137 99 -143 102
-208 102 -50 0 -65 6 -122 43 -98 64 -158 92 -275 125 -178 52 -347 68 -509
49z m424 -53 c211 -50 355 -131 497 -279 88 -92 150 -200 160 -278 3 -24 11
-51 18 -59 7 -8 16 -37 20 -65 3 -27 11 -70 17 -95 13 -54 -5 -128 -51 -213
-57 -106 -60 -155 -4 -59 61 103 28 -57 -42 -202 -52 -111 -116 -192 -196
-251 -34 -25 -65 -45 -69 -45 -4 0 -2 17 6 38 7 20 13 58 14 84 0 43 5 53 48
101 61 67 101 125 139 202 48 96 49 130 2 45 -44 -78 -116 -175 -167 -223
l-30 -29 -47 47 -47 48 7 64 c6 54 13 74 46 116 21 29 37 59 34 68 -3 8 15 43
41 77 26 35 45 64 43 67 -2 2 -32 -30 -67 -71 -35 -41 -67 -74 -73 -74 -5 0
-9 43 -9 96 0 88 2 99 25 126 29 34 27 45 -4 28 -25 -13 -26 -10 -36 67 -6 52
-5 53 27 67 l33 14 -32 1 c-29 1 -33 5 -51 60 -25 73 -96 182 -158 241 -53 50
-44 35 31 -55 118 -140 160 -330 135 -614 -47 -525 -91 -728 -280 -1301 -26
-79 -69 -178 -70 -159 0 9 7 33 15 52 33 79 10 86 -29 9 -41 -82 -49 -140 -41
-288 7 -132 4 -148 -24 -122 -11 11 -12 8 -9 -17 3 -16 8 -37 11 -45 4 -8 2
-22 -3 -30 -14 -22 -34 3 -55 70 -10 30 -29 75 -44 100 -102 171 -103 325 -4
510 92 170 103 195 98 217 -3 12 -1 25 5 28 6 4 7 -1 4 -12 -3 -10 8 5 25 32
38 61 94 192 88 208 -2 6 -11 -9 -21 -32 -29 -74 -27 -40 4 53 16 48 37 118
46 154 9 37 25 84 36 105 34 68 17 75 -30 14 -66 -85 -74 -86 -43 -5 64 164
108 438 96 594 -9 125 -22 135 -22 17 1 -130 -10 -202 -34 -242 -11 -18 -22
-32 -24 -30 -1 2 6 38 16 79 11 42 18 99 17 130 l-3 55 -13 -44 c-30 -99 -175
-295 -214 -289 -20 3 -21 10 -22 220 -1 240 -16 297 -29 114 -10 -145 -26
-172 -27 -44 0 87 -13 159 -25 146 -3 -3 -12 -52 -21 -110 -8 -57 -28 -145
-44 -194 l-28 -89 -2 130 c-1 72 -6 141 -10 155 -10 31 -10 29 -16 -109 -4
-100 -10 -130 -46 -235 -22 -67 -43 -124 -47 -129 -4 -4 -23 39 -43 95 -20 57
-55 152 -78 212 -43 114 -60 183 -62 254 0 23 -4 45 -9 47 -15 10 -24 -69 -22
-187 2 -65 1 -118 -2 -118 -12 0 -38 123 -49 229 l-12 116 -9 -59 c-5 -37 -3
-96 4 -152 13 -110 15 -264 2 -264 -17 0 -51 113 -51 172 0 45 -17 59 -24 21
-2 -16 -3 23 -2 85 1 62 -1 107 -5 100 -16 -29 -52 -226 -58 -318 l-6 -95 -14
40 c-23 67 -34 67 -28 0 l6 -60 -26 55 c-53 111 -40 330 30 506 25 61 30 81
17 64 -32 -41 -89 -196 -100 -268 -14 -100 -12 -317 4 -392 19 -89 54 -198 66
-205 6 -3 10 -11 10 -18 0 -27 -79 70 -120 147 -24 47 -46 83 -48 81 -7 -6 29
-108 51 -145 11 -19 32 -48 45 -65 24 -28 24 -34 19 -126 -10 -169 -42 -273
-160 -519 -55 -116 -97 -228 -97 -261 0 -10 -4 -21 -10 -24 -27 -17 2 171 49
318 31 97 39 143 22 133 -19 -12 -92 -260 -103 -348 -11 -91 -9 -108 23 -283
5 -28 25 -77 44 -108 34 -57 44 -84 26 -72 -5 3 -11 -2 -13 -11 -6 -29 -179
151 -213 221 -50 105 -45 247 15 420 16 44 47 131 69 193 40 111 72 261 70
332 -1 35 -1 35 -13 -11 -25 -88 -133 -264 -244 -395 l-33 -39 14 35 c8 19 50
94 94 165 99 161 112 187 154 300 l33 90 6 320 c7 301 9 326 33 418 32 121 62
187 122 272 61 84 132 146 226 195 42 22 82 47 90 56 20 24 181 101 261 125
186 55 417 61 608 15z m-344 -1011 c-3 -69 -9 -137 -12 -150 -4 -15 -2 -25 4
-25 6 0 22 33 36 73 l26 72 -6 -98 c-5 -96 -5 -98 15 -88 11 6 22 11 25 11 2
0 6 -65 8 -144 2 -80 6 -147 10 -151 22 -22 28 17 28 171 l0 164 38 43 c21 23
53 64 71 90 18 27 34 47 36 45 3 -3 -17 -77 -42 -160 -10 -32 15 -19 56 30 47
55 48 51 21 -82 -24 -116 -60 -226 -100 -306 -17 -33 -30 -62 -30 -65 0 -13
21 -2 64 36 25 22 46 35 45 27 0 -7 -17 -62 -37 -123 l-37 -109 -77 -23 c-66
-20 -79 -27 -84 -49 -6 -23 -31 -44 -53 -44 -6 0 -11 14 -11 31 l0 31 -67 -8
c-93 -12 -191 -7 -271 11 -90 21 -222 86 -273 135 -41 39 -42 41 -36 90 8 65
13 73 38 59 32 -17 34 -4 5 34 -23 30 -26 43 -26 115 0 82 5 93 29 70 11 -11
12 -7 8 17 -12 64 -17 182 -10 229 l8 48 35 -78 c34 -78 35 -82 40 -243 4
-119 8 -166 18 -169 9 -3 12 32 12 152 0 142 6 177 25 146 25 -40 29 35 9 143
-9 42 10 32 40 -23 37 -68 51 -75 41 -19 -14 82 -21 170 -15 174 9 5 123 -280
146 -362 10 -35 20 -63 23 -63 4 0 23 30 44 68 20 37 37 59 37 50 0 -35 18
-17 48 50 35 76 67 170 77 222 21 111 28 90 21 -55z m-666 -287 c0 -38 -16
-27 -30 20 -14 53 -12 60 10 33 11 -13 20 -36 20 -53z m1309 -7 c11 -11 25
-39 32 -61 25 -82 -22 -207 -93 -250 -18 -11 -33 -18 -35 -16 -3 2 35 235 53
324 5 27 18 28 43 3z m145 -407 c21 -8 51 -14 67 -14 16 0 37 -9 47 -20 19
-20 20 -20 24 -2 4 13 18 21 44 25 76 13 94 9 140 -32 25 -22 118 -76 207
-122 190 -97 249 -146 292 -242 31 -67 39 -156 17 -192 -10 -17 -11 -13 -12
33 0 91 -95 238 -181 282 -14 7 2 -15 37 -51 129 -134 146 -245 56 -382 l-25
-38 -20 62 c-25 84 -54 126 -129 192 -62 55 -178 137 -193 137 -4 0 23 -23 61
-51 110 -82 127 -98 171 -161 51 -74 73 -135 73 -207 0 -56 -27 -121 -50 -121
-25 0 -221 -100 -227 -116 -3 -9 -1 -25 6 -36 11 -17 10 -19 -6 -14 -16 5
-120 26 -129 26 -2 0 -4 6 -4 14 0 24 54 62 149 102 70 30 93 45 102 66 19 46
6 135 -30 208 -70 143 -89 171 -70 108 14 -52 11 -142 -6 -164 -15 -18 -16
-16 -10 22 7 48 -9 121 -40 184 -27 53 -105 129 -195 190 -143 96 -215 176
-260 290 -27 69 -26 73 18 54 20 -9 54 -22 76 -30z m-1879 -112 c-8 -27 -31
-91 -50 -143 -40 -105 -70 -218 -80 -297 -8 -63 -20 -63 -54 -2 -33 59 -35
175 -3 235 19 37 187 255 197 255 2 0 -3 -22 -10 -48z m841 -147 c4 -8 12 -15
19 -15 22 0 36 -27 37 -74 0 -26 -2 -50 -6 -53 -3 -3 -26 13 -51 36 -30 27
-54 41 -72 41 -26 0 -25 -2 15 -21 33 -17 42 -27 42 -48 0 -14 7 -35 16 -46
22 -30 8 -96 -45 -205 -35 -72 -62 -112 -116 -167 -64 -67 -73 -73 -111 -73
-45 0 -73 21 -100 72 -22 43 -14 112 26 218 47 123 106 201 180 241 45 24 60
37 60 53 0 40 93 76 106 41z m229 -69 c9 -14 15 -37 13 -53 -3 -25 -8 -29 -48
-33 -25 -3 -62 -15 -83 -27 l-37 -22 0 40 c0 42 34 89 65 89 8 0 15 7 15 15 0
26 57 19 75 -9z m57 -137 c-32 -53 -41 -80 -52 -155 -16 -116 -10 -206 18
-263 27 -55 27 -67 3 -81 -36 -19 -59 -11 -86 27 -33 50 -35 152 -4 239 12 32
21 68 21 78 -1 10 6 33 15 50 23 45 115 177 120 172 2 -2 -13 -32 -35 -67z
m-77 10 c-4 -5 -1 -9 4 -9 19 0 12 -29 -28 -108 -22 -43 -44 -97 -51 -121 -18
-69 -15 -159 9 -220 11 -30 19 -57 16 -59 -2 -3 -18 1 -34 8 -66 27 -97 178
-65 316 10 44 16 85 15 93 -2 13 2 25 28 81 12 26 71 50 93 39 10 -5 16 -14
13 -20z m-190 -169 c-4 -12 -9 -19 -12 -17 -3 3 -2 15 2 27 4 12 9 19 12 17 3
-3 2 -15 -2 -27z m-995 -71 c21 -49 21 -51 3 -77 l-17 -27 -7 48 c-4 27 -12
62 -18 79 -25 72 6 54 39 -23z m2500 -32 c0 -31 -56 -77 -96 -77 -12 0 -8 9
16 36 17 20 36 48 41 63 10 25 11 25 25 7 8 -11 14 -24 14 -29z m20 -80 c0
-28 -36 -60 -97 -88 -36 -16 -73 -29 -84 -29 -10 0 -37 -7 -59 -16 -23 -9 -43
-14 -47 -11 -10 11 63 76 93 82 65 15 153 47 164 61 15 17 30 18 30 1z m-21
-291 c10 -12 8 -13 -9 -9 -25 7 -37 23 -17 23 8 0 20 -6 26 -14z m-1589 -124
c41 -49 210 -418 210 -458 0 -17 45 -83 68 -100 27 -20 5 -32 -63 -35 -59 -3
-60 -2 -66 27 -4 16 -7 21 -8 12 -1 -23 -57 -25 -88 -3 -19 13 -21 13 -26 -5
-8 -29 -118 -29 -147 0 -15 15 -28 18 -46 14 -17 -4 -31 -1 -44 11 -11 10 -28
15 -40 12 -11 -3 -30 3 -42 12 -31 24 -56 32 -63 21 -11 -18 -54 -11 -65 10
-7 13 -21 20 -39 20 -15 0 -36 9 -46 20 -10 11 -26 20 -35 20 -10 0 -23 7 -30
15 -7 8 -20 15 -29 15 -18 0 -65 43 -56 52 3 2 -4 4 -15 4 -14 -1 -28 12 -42
37 l-22 37 26 27 26 26 16 -37 c9 -22 25 -40 41 -46 15 -6 46 -24 70 -40 24
-17 49 -30 55 -30 11 0 89 -56 133 -94 20 -19 27 -20 27 -4 0 19 79 168 136
253 66 101 144 208 149 203 2 -1 -8 -54 -21 -117 -13 -63 -25 -160 -28 -215
l-5 -101 9 85 c12 118 41 260 54 273 7 6 10 23 8 39 -5 30 3 58 15 58 5 0 15
-8 23 -18z m-615 -114 c12 -39 54 -87 100 -114 25 -14 45 -30 45 -34 0 -11
-38 -1 -70 18 -15 9 -8 -1 15 -22 l40 -37 -39 16 c-57 22 -101 58 -120 98 -18
40 -21 67 -6 67 6 0 10 7 10 15 0 23 18 18 25 -7z m1762 -142 c26 -22 27 -26
14 -50 -8 -14 -21 -26 -30 -26 -9 0 -36 -16 -61 -36 -37 -30 -46 -33 -55 -21
-10 13 -14 13 -32 -1 -11 -10 -24 -27 -28 -39 -10 -34 -115 -59 -115 -28 0 12
-7 14 -27 11 -16 -2 -36 -5 -46 -5 -10 -1 -34 -17 -54 -37 -31 -31 -40 -35
-69 -29 -19 3 -43 1 -53 -5 -14 -7 -22 -7 -26 1 -9 14 -67 1 -81 -17 -7 -8
-25 -16 -40 -17 -42 -3 -37 25 6 38 48 15 86 34 143 73 27 17 60 32 73 32 14
0 27 7 30 15 7 18 68 38 94 30 11 -3 20 -2 20 3 0 5 26 14 58 20 31 6 73 15
92 19 43 10 126 59 134 78 8 21 21 19 53 -9z m-352 -6 c-3 -5 -32 -17 -63 -26
-31 -9 -87 -34 -124 -55 -71 -42 -88 -48 -68 -25 21 26 112 80 164 98 57 19
100 23 91 8z m-1169 -51 c36 -22 44 -39 19 -39 -13 0 -14 -4 -5 -20 6 -11 8
-20 5 -20 -14 0 -62 30 -80 50 l-20 23 30 -7 c29 -7 29 -7 11 13 -25 28 -4 28
40 0z m1169 12 c-6 -5 -39 -18 -75 -30 -36 -12 -90 -37 -119 -56 -65 -43 -89
-45 -41 -4 37 31 118 77 160 90 35 10 86 11 75 0z m-460 -151 c-7 -12 -74 -25
-83 -16 -3 4 0 11 8 16 20 13 83 13 75 0z m11 -35 c-19 -14 -86 -21 -86 -10 0
10 44 24 75 24 29 0 29 0 11 -14z m174 -72 c0 -45 -82 -297 -99 -307 -4 -3
-23 6 -41 19 -19 14 -40 25 -48 25 -13 0 -14 17 -9 108 7 143 9 146 66 138 35
-4 55 -1 81 13 45 24 50 24 50 4z m-429 -35 c12 -11 14 -38 11 -145 -3 -118
-6 -133 -21 -133 -9 0 -26 7 -37 15 -10 8 -29 15 -41 15 -25 0 -37 43 -49 172
l-7 77 54 4 c30 2 59 4 65 5 5 1 17 -4 25 -10z m193 -28 c17 0 18 -6 12 -72
-3 -39 -8 -73 -9 -74 -1 -1 -33 -4 -72 -5 l-70 -4 -3 70 c-3 69 -2 71 25 82
15 7 44 10 63 8 19 -3 44 -5 54 -5z m-9 -196 c13 -5 15 -16 9 -63 -7 -62 5
-82 57 -95 54 -12 83 9 111 82 19 48 32 68 48 72 29 7 280 -7 354 -20 32 -5
66 -16 75 -24 14 -13 29 -13 91 -4 105 14 268 5 369 -21 92 -24 153 -50 158
-67 10 -32 -193 -69 -427 -79 -74 -3 -155 -8 -179 -11 -77 -10 -990 -5 -1135
6 -273 21 -415 43 -423 66 -7 21 101 57 307 103 71 15 238 34 253 28 9 -3 17
-28 21 -60 9 -73 26 -87 93 -78 75 10 85 22 77 92 -6 55 -5 59 17 68 28 11
100 14 124 5z m73 -62 c3 -9 -2 -13 -14 -10 -9 1 -19 9 -22 16 -3 9 2 13 14
10 9 -1 19 -9 22 -16z m-318 -22 c0 -5 -6 -10 -14 -10 -8 0 -18 5 -21 10 -3 6
3 10 14 10 12 0 21 -4 21 -10z"/>
<path d="M3055 3650 c-11 -12 -37 -31 -57 -41 -21 -11 -38 -25 -38 -31 0 -6
-10 -23 -22 -36 -27 -29 -12 -22 55 25 26 19 47 30 47 23 0 -15 -52 -90 -80
-115 -29 -26 -90 -104 -67 -86 10 8 20 11 24 8 3 -4 -24 -36 -60 -72 -70 -70
-75 -82 -13 -35 21 16 42 27 47 25 23 -15 137 171 173 283 21 63 18 81 -9 52z"/>
<path d="M1627 3580 c-8 -33 -12 -62 -8 -65 8 -4 34 116 27 122 -2 2 -10 -23
-19 -57z"/>
<path d="M2161 3540 c0 -25 4 -52 9 -60 13 -19 13 56 0 85 -7 15 -9 9 -9 -25z"/>
<path d="M3017 3319 c-57 -118 -71 -167 -28 -93 42 71 101 214 88 214 -1 0
-29 -54 -60 -121z"/>
<path d="M1771 1134 c0 -11 3 -14 6 -6 3 7 2 16 -1 19 -3 4 -6 -2 -5 -13z"/>
<path d="M1726 843 c-6 -14 -5 -15 5 -6 7 7 10 15 7 18 -3 3 -9 -2 -12 -12z"/>
<path d="M1500 790 c0 -5 5 -10 10 -10 6 0 10 5 10 10 0 6 -4 10 -10 10 -5 0
-10 -4 -10 -10z"/>
</g>
</svg>
